
        <svg xmlns="http://www.w3.org/2000/svg" xmlns:xlink="http://www.w3.org/1999/xlink" version="1.1" width="3161.964680975317" 
        height="850.1172745801448" viewBox="0 0 3161.964680975317 850.1172745801448">
			
			<g transform="scale(8.098234048765859) translate(10, 10)">
				<defs id="SvgjsDefs12178"><linearGradient id="SvgjsLinearGradient12185"><stop id="SvgjsStop12186" stop-color="#26275f" offset="0"></stop><stop id="SvgjsStop12187" stop-color="#813e96" offset="0.14"></stop><stop id="SvgjsStop12188" stop-color="#2e64af" offset="0.29"></stop><stop id="SvgjsStop12189" stop-color="#3faa49" offset="0.5"></stop><stop id="SvgjsStop12190" stop-color="#f2e64a" offset="0.71"></stop><stop id="SvgjsStop12191" stop-color="#f2903b" offset="0.86"></stop><stop id="SvgjsStop12192" stop-color="#ed4533" offset="1"></stop></linearGradient><linearGradient id="SvgjsLinearGradient12193"><stop id="SvgjsStop12194" stop-color="#8f5e25" offset="0"></stop><stop id="SvgjsStop12195" stop-color="#fbf4a1" offset="0.5"></stop><stop id="SvgjsStop12196" stop-color="#8f5e25" offset="1"></stop></linearGradient><linearGradient id="SvgjsLinearGradient12197"><stop id="SvgjsStop12198" stop-color="#8f5e25" offset="0"></stop><stop id="SvgjsStop12199" stop-color="#fbf4a1" offset="0.5"></stop><stop id="SvgjsStop12200" stop-color="#8f5e25" offset="1"></stop></linearGradient></defs><g id="SvgjsG12179" featureKey="xJRin6-0" transform="matrix(0.8519939290659553,0,0,0.8519939290659553,285.2517402904183,-0.22322085586800056)" fill="url(#SvgjsLinearGradient12185)"><path xmlns="http://www.w3.org/2000/svg" d="M68.531,42.786l7.561-4.21c-1.311-2.172-2.838-4.25-4.594-6.197l-6.191,6.053C66.521,39.81,67.595,41.267,68.531,42.786z"></path><path xmlns="http://www.w3.org/2000/svg" d="M63.927,82.022C51.48,94.47,31.302,94.47,18.855,82.023c-12.446-12.446-12.446-32.625,0-45.071  c9.582-9.582,23.743-11.778,35.434-6.608l3.869-7.742c-14.932-6.784-33.133-4.042-45.414,8.239  c-15.821,15.822-15.821,41.472,0,57.293c15.821,15.82,41.472,15.821,57.294,0c12.456-12.456,15.098-31.004,7.939-46.052  l-7.647,4.041C75.77,57.901,73.635,72.314,63.927,82.022z"></path><path xmlns="http://www.w3.org/2000/svg" d="M62.636,35.735l6.05-6.18c-2.181-1.991-4.525-3.699-6.989-5.128l-4.036,7.65C59.406,33.115,61.073,34.334,62.636,35.735z"></path><path xmlns="http://www.w3.org/2000/svg" d="M52.086,70.184c-5.907,5.905-15.482,5.905-21.389,0c-5.907-5.907-5.907-15.482,0-21.39c4.35-4.35,10.687-5.485,16.086-3.427  l3.875-7.756c-8.65-3.66-19.023-1.979-26.073,5.071c-9.282,9.282-9.282,24.331,0,33.612c9.282,9.282,24.33,9.282,33.612,0  c7.131-7.132,8.761-17.658,4.935-26.367l-7.661,4.048C57.591,59.4,56.468,65.801,52.086,70.184z"></path><path xmlns="http://www.w3.org/2000/svg" d="M53.295,50.175c0.199,0.254,0.391,0.512,0.571,0.776l7.569-4.215c-0.578-0.908-1.228-1.781-1.942-2.621L53.295,50.175z"></path><path xmlns="http://www.w3.org/2000/svg" d="M56.944,41.549c-0.979-0.851-2.008-1.608-3.082-2.271l-4.04,7.658c0.367,0.247,0.727,0.508,1.076,0.791L56.944,41.549z"></path><path xmlns="http://www.w3.org/2000/svg" d="M40.204,59.602c-0.054-0.093-0.095-0.188-0.121-0.289c-0.108-0.431,0.099-0.75,0.123-0.785l2.732-5.468  c-1.987-0.37-4.117,0.212-5.654,1.75c-2.479,2.478-2.479,6.497,0,8.975c2.479,2.479,6.497,2.479,8.976,0  c1.586-1.587,2.152-3.805,1.707-5.845l-5.572,2.943c-0.007,0.006-0.206,0.126-0.496,0.126c-0.242,0-0.56-0.087-0.876-0.409  c-0.11-0.079-0.219-0.17-0.329-0.279C40.455,60.079,40.296,59.84,40.204,59.602z"></path><path xmlns="http://www.w3.org/2000/svg" d="M45.823,52.911l21.794-41.316l0.242,0.015c0,0,0.001,0,0.002,0c0.5,0,4.445-0.203,7.146-6.798  c-0.469-0.267-1.044-0.401-1.714-0.401c-1.81,0-3.679,0.974-3.697,0.983l-0.523,0.276l-0.026-0.591  c-0.001-0.038-0.187-3.64-2.543-4.817c-4.052,6.321-1.574,9.936-1.548,9.972l0.131,0.184l-0.102,0.202L41.786,57.035L45.823,52.911z  "></path><path xmlns="http://www.w3.org/2000/svg" d="M44.169,59.098l45.9-24.251l0.191,0.146c0.011,0.008,1.072,0.799,3.057,0.799c2.041,0,4.288-0.8,6.683-2.379  c-1.029-2.114-4.76-2.567-4.799-2.571l-0.588-0.068l0.312-0.503c0.02-0.032,1.9-3.111,0.62-5.411  c-6.912,2.933-6.906,7.316-6.905,7.36l0.005,0.225L48.664,54.703L44.169,59.098z"></path><path xmlns="http://www.w3.org/2000/svg" d="M40.965,58.941c-0.037,0.033-0.104,0.097-0.107,0.211c-0.005,0.169,0.125,0.396,0.367,0.638  c0.243,0.242,0.475,0.375,0.653,0.375c0.126,0,0.197-0.067,0.204-0.075l38.853-37.986l0.226,0.085  c0.005,0.002,0.486,0.181,1.299,0.181c1.443,0,4.325-0.587,7.591-4.463c-1.566-1.71-5.315-1.105-5.331-1.102l-0.582,0.101  l0.156-0.57c0.01-0.036,0.938-3.523-0.944-5.365c-5.794,4.775-4.544,8.976-4.53,9.018l0.068,0.215l-0.158,0.161L40.965,58.941z"></path></g><g id="SvgjsG12180" featureKey="tgvQcv-0" transform="matrix(3.17262693007767,0,0,3.17262693007767,0,-15.068736272549021)" fill="url(#SvgjsLinearGradient12193)"><path d="M2.74 20.12 c-1.52 0 -2.74 -1.24 -2.74 -2.74 l0 -2.18 l1.94 0 l0 2.18 c0 0.44 0.36 0.8 0.8 0.8 s0.78 -0.36 0.78 -0.8 l0 -1.9 l-3.52 -4.86 l0 -2.48 c0 -1.52 1.22 -2.76 2.74 -2.76 c1.5 0 2.72 1.24 2.72 2.76 l0 2.16 l-1.94 0 l0 -2.16 c0 -0.46 -0.34 -0.8 -0.78 -0.8 s-0.8 0.34 -0.8 0.8 l0 1.82 l3.52 4.86 l0 2.56 c0 1.5 -1.22 2.74 -2.72 2.74 z M9.3 8.82 l1.9 0 l0 11.42 l-1.9 0 l0 -0.42 c-0.14 0.04 -0.3 0.06 -0.46 0.06 c-1.32 0 -2.38 -1.08 -2.38 -2.38 l0 -8.66 l1.9 0 l0 8.66 c0 0.26 0.22 0.48 0.48 0.48 s0.46 -0.22 0.46 -0.48 l0 -8.68 z M17.58 5.720000000000001 l0 14.3 l-2.98 0 c-1.32 0 -2.4 -1.06 -2.4 -2.4 l0 -6.54 c0 -1.32 1.08 -2.4 2.4 -2.4 l1.06 0 l0 -2.96 l1.92 0 z M15.66 10.58 l-1.06 0 c-0.28 0 -0.5 0.22 -0.5 0.5 l0 6.54 c0 0.28 0.22 0.5 0.5 0.5 l1.06 0 l0 -7.54 z M21.22 8.68 c1.42 0 2.58 1.14 2.58 2.56 l0 8.74 l-1.9 0 l0 -8.74 c0 -0.36 -0.3 -0.68 -0.68 -0.68 l-0.74 0 l0 9.42 l-1.9 0 l0 -14.26 l1.9 0 l0 2.96 l0.74 0 z M27.4 19.96 c-1.44 0 -2.6 -1.18 -2.6 -2.62 l0 -6.24 c0 -1.32 1.08 -2.4 2.4 -2.4 l0.42 0 c1.32 0 2.4 1.08 2.4 2.4 l0 2.62 l-3.36 0.06 l0 3.56 c0 0.42 0.32 0.76 0.74 0.76 s0.76 -0.34 0.76 -0.76 l0 -1.24 l1.86 0 l0 1.24 c0 1.44 -1.18 2.62 -2.62 2.62 z M27.619999999999997 10.54 l-0.42 0 c-0.3 0 -0.54 0.26 -0.54 0.56 l0 0.84 l1.5 -0.04 l0 -0.8 c0 -0.3 -0.24 -0.56 -0.54 -0.56 z M33.62 19.96 c-1.44 0 -2.6 -1.18 -2.6 -2.62 l0 -6.24 c0 -1.32 1.08 -2.4 2.4 -2.4 l0.42 0 c1.32 0 2.4 1.08 2.4 2.4 l0 2.62 l-3.36 0.06 l0 3.56 c0 0.42 0.32 0.76 0.74 0.76 s0.76 -0.34 0.76 -0.76 l0 -1.24 l1.86 0 l0 1.24 c0 1.44 -1.18 2.62 -2.62 2.62 z M33.839999999999996 10.54 l-0.42 0 c-0.3 0 -0.54 0.26 -0.54 0.56 l0 0.84 l1.5 -0.04 l0 -0.8 c0 -0.3 -0.24 -0.56 -0.54 -0.56 z M40.13999999999999 9.14 c1.36 0 2.46 1.08 2.46 2.44 l0 0.96 l-1.9 0 l0 -0.96 c0 -0.32 -0.24 -0.56 -0.56 -0.56 l-0.42 0 c-0.3 0 -0.56 0.24 -0.56 0.56 l-0.04 8.44 l-1.88 0 l0.04 -8.44 l0 -2.88 l1.88 0 l0 0.5 c0.18 -0.04 0.38 -0.06 0.56 -0.06 l0.42 0 z M50.339999999999996 20.12 c-1.52 0 -2.74 -1.24 -2.74 -2.74 l0 -2.18 l1.94 0 l0 2.18 c0 0.44 0.36 0.8 0.8 0.8 s0.78 -0.36 0.78 -0.8 l0 -1.9 l-3.52 -4.86 l0 -2.48 c0 -1.52 1.22 -2.76 2.74 -2.76 c1.5 0 2.72 1.24 2.72 2.76 l0 2.16 l-1.94 0 l0 -2.16 c0 -0.46 -0.34 -0.8 -0.78 -0.8 s-0.8 0.34 -0.8 0.8 l0 1.82 l3.52 4.86 l0 2.56 c0 1.5 -1.22 2.74 -2.72 2.74 z M55.959999999999994 19.96 l0 3.46 l-1.9 0 l0 -14.74 l2.96 0 c1.32 0 2.38 1.06 2.38 2.38 l0 6.52 c0 1.3 -1.06 2.38 -2.38 2.38 l-1.06 0 z M55.959999999999994 10.58 l0 7.48 l1.06 0 c0.28 0 0.48 -0.22 0.48 -0.48 l0 -6.52 c0 -0.26 -0.2 -0.48 -0.48 -0.48 l-1.06 0 z M63.099999999999994 20.02 c-1.5 0 -2.7 -1.22 -2.7 -2.7 l0 -5.94 c0 -1.48 1.2 -2.7 2.7 -2.7 c1.48 0 2.68 1.22 2.68 2.7 l0 5.94 c0 1.48 -1.2 2.7 -2.68 2.7 z M63.099999999999994 10.6 c-0.44 0 -0.78 0.36 -0.78 0.78 l0 5.94 c0 0.44 0.34 0.78 0.78 0.78 c0.42 0 0.78 -0.34 0.78 -0.78 l0 -5.94 c0 -0.42 -0.36 -0.78 -0.78 -0.78 z M69.67999999999999 9.14 c1.36 0 2.46 1.08 2.46 2.44 l0 0.96 l-1.9 0 l0 -0.96 c0 -0.32 -0.24 -0.56 -0.56 -0.56 l-0.42 0 c-0.3 0 -0.56 0.24 -0.56 0.56 l-0.04 8.44 l-1.88 0 l0.04 -8.44 l0 -2.88 l1.88 0 l0 0.5 c0.18 -0.04 0.38 -0.06 0.56 -0.06 l0.42 0 z M77.33999999999999 10.6 l-1.36 0 l0 6.38 c0 0.6 0.5 1.08 1.1 1.08 l0 1.92 c-1.66 0 -3 -1.34 -3 -3 l0 -6.38 l-1.36 0 l0 -1.92 l1.36 0 l0 -3 l1.9 0 l0 3 l1.36 0 l0 1.92 z M81.02 19.98 c-1.48 0 -2.68 -1.2 -2.68 -2.68 l0 -1.56 l1.9 0 l0 1.56 c0 0.44 0.36 0.78 0.78 0.78 c0.44 0 0.78 -0.34 0.78 -0.78 l0 -0.86 l-3.46 -3.58 l0 -1.58 c0 -1.48 1.2 -2.7 2.68 -2.7 s2.68 1.22 2.68 2.7 l0 1.24 l-1.9 0 l0 -1.24 c0 -0.44 -0.34 -0.78 -0.78 -0.78 c-0.42 0 -0.78 0.34 -0.78 0.78 l0 0.8 l3.46 3.6 l0 1.62 c0 1.48 -1.2 2.68 -2.68 2.68 z"></path></g><g id="SvgjsG12181" featureKey="ZpTWfr-0" transform="matrix(0.8814900061922389,0,0,0.8814900061922389,26.118509993807763,65.65033780833862)" fill="url(#SvgjsLinearGradient12197)"><path d="M1 20 l0 -16 l2 0 l0 16 l-2 0 z M15 20 l0 -16 l1.8 0 l2.62 9.8 l-0.02 -0.2 l0 -9.6 l2 0 l0 16 l-1.8 0 l-2.62 -8.8 l0.02 0.2 l0 8.6 l-2 0 z M32.8 4 l2.1 0 l1.2 11.8 l0.2 0 l1.2 -11.8 l2.1 0 l-2.2 16 l-2.4 0 z M51 20 l0 -16 l4.6 0 l0 1.6 l-2.6 0 l0 5.2 l2.2 0 l0 1.6 l-2.2 0 l0 5.6 l2.6 0 l0 2 l-4.6 0 z M66.6 15.120000000000001 l2.02 0 c0.04 2.58 0.24 3.08 0.96 3.08 c0.98 0 0.98 -0.82 0.98 -3 c0 -3.2 -3.96 -2.34 -3.96 -6.6 c0 -2.5 0 -4.8 3 -4.8 c2.22 0 2.82 1.26 2.96 4.28 l-2 0 c-0.08 -2.18 -0.32 -2.68 -0.96 -2.68 c-0.98 0 -0.98 1.08 -0.98 3.2 c0 3.1 3.98 2 3.98 6.6 c0 2.8 0 5 -3.02 5 c-2.32 0 -2.86 -1.38 -2.98 -5.08 z M83.4 5.800000000000001 l0 -1.8 l6 0 l0 1.8 l-2 0 l0 14.2 l-2 0 l0 -14.2 l-2 0 z M115 20 l0 -8.4 c0 -5.58 0 -7.78 3 -7.78 s3 2.2 3 7.78 l0 8.4 l-2 0 l0 -4.6 l-2 0 l0 4.6 l-2 0 z M117 13.8 l2 0 l0 -2.2 c0 -5.2 0 -6.18 -1 -6.18 s-1 0.98 -1 6.18 l0 2.2 z M133 20 l0 -16 l1.8 0 l2.62 9.8 l-0.02 -0.2 l0 -9.6 l2 0 l0 16 l-1.8 0 l-2.62 -8.8 l0.02 0.2 l0 8.6 l-2 0 z M151.4 20 l0 -16 l3 0 c3 0 3 2.2 3 7.58 c0 6.2 0 8.42 -3 8.42 l-3 0 z M153.4 18 l1 0 c1.12 0 1.12 -0.84 1.12 -6.42 c0 -5 0 -5.98 -1.12 -5.98 l-1 0 l0 12.4 z M183.60000000000002 20 l0 -16 l4.6 0 l0 1.6 l-2.6 0 l0 5.2 l2.2 0 l0 1.6 l-2.2 0 l0 5.6 l2.6 0 l0 2 l-4.6 0 z M199.60000000000002 20 l0 -8.4 c0 -5.58 0 -7.78 3 -7.78 s3 2.2 3 7.78 l0 8.4 l-2 0 l0 -4.6 l-2 0 l0 4.6 l-2 0 z M201.60000000000002 13.8 l2 0 l0 -2.2 c0 -5.2 0 -6.18 -1 -6.18 s-1 0.98 -1 6.18 l0 2.2 z M217.60000000000002 20 l0 -16 l3.24 0 c2.06 0 2.76 1.26 2.76 3.68 c0 2.18 -0.26 3.42 -0.88 4.02 l0 0.12 c0.52 0.18 0.68 1.12 0.88 3.46 l0.4 4.72 l-2 0 l-0.26 -4.72 c-0.14 -2.38 -0.5 -2.88 -1.1 -2.88 l-1.04 0 l0 7.6 l-2 0 z M219.60000000000002 10.8 l1.24 0 c0.7 0 0.9 -0.7 0.9 -3.12 c0 -1.58 -0.3 -2.08 -0.9 -2.08 l-1.24 0 l0 5.2 z M235.60000000000002 20 l0 -16 l1.8 0 l2.62 9.8 l-0.02 -0.2 l0 -9.6 l2 0 l0 16 l-1.8 0 l-2.62 -8.8 l0.02 0.2 l0 8.6 l-2 0 z"></path></g>
			</g>
		</svg>
	